=== Flask 啟動，負責 mp4 推流到 RTMP，不管理 nginx ===
 * Serving Flask app 'stream'
 * Debug mode: on
Address already in use
Port 8080 is in use by another program. Either identify and stop that program, or start the server with a different port.
ffmpeg version 4.2.7-0ubuntu0.1 Copyright (c) 2000-2022 the FFmpeg developers
  built with gcc 9 (Ubuntu 9.4.0-1ubuntu1~20.04.1)
  configuration: --prefix=/usr --extra-version=0ubuntu0.1 --toolchain=hardened --libdir=/usr/lib/x86_64-linux-gnu --incdir=/usr/include/x86_64-linux-gnu --arch=amd64 --enable-gpl --disable-stripping --enable-avresample --disable-filter=resample --enable-avisynth --enable-gnutls --enable-ladspa --enable-libaom --enable-libass --enable-libbluray --enable-libbs2b --enable-libcaca --enable-libcdio --enable-libcodec2 --enable-libflite --enable-libfontconfig --enable-libfreetype --enable-libfribidi --enable-libgme --enable-libgsm --enable-libjack --enable-libmp3lame --enable-libmysofa --enable-libopenjpeg --enable-libopenmpt --enable-libopus --enable-libpulse --enable-librsvg --enable-librubberband --enable-libshine --enable-libsnappy --enable-libsoxr --enable-libspeex --enable-libssh --enable-libtheora --enable-libtwolame --enable-libvidstab --enable-libvorbis --enable-libvpx --enable-libwavpack --enable-libwebp --enable-libx265 --enable-libxml2 --enable-libxvid --enable-libzmq --enable-libzvbi --enable-lv2 --enable-omx --enable-openal --enable-opencl --enable-opengl --enable-sdl2 --enable-libdc1394 --enable-libdrm --enable-libiec61883 --enable-nvenc --enable-chromaprint --enable-frei0r --enable-libx264 --enable-shared
  libavutil      56. 31.100 / 56. 31.100
  libavcodec     58. 54.100 / 58. 54.100
  libavformat    58. 29.100 / 58. 29.100
  libavdevice    58.  8.100 / 58.  8.100
  libavfilter     7. 57.100 /  7. 57.100
  libavresample   4.  0.  0 /  4.  0.  0
  libswscale      5.  5.100 /  5.  5.100
  libswresample   3.  5.100 /  3.  5.100
  libpostproc    55.  5.100 / 55.  5.100
Input #0, mov,mp4,m4a,3gp,3g2,mj2, from './tmp_video/ai_stream.mp4':
  Metadata:
    major_brand     : isom
    minor_version   : 512
    compatible_brands: isomiso2avc1mp41
    encoder         : Lavf58.76.100
  Duration: 00:00:30.38, start: 0.000000, bitrate: 921 kb/s
    Stream #0:0(und): Video: h264 (High) (avc1 / 0x31637661), yuv420p, 576x768, 873 kb/s, 18 fps, 18 tbr, 18432 tbn, 36 tbc (default)
    Metadata:
      handler_name    : VideoHandler
    Stream #0:1(und): Audio: aac (LC) (mp4a / 0x6134706D), 44100 Hz, mono, fltp, 53 kb/s (default)
    Metadata:
      handler_name    : SoundHandler
[rtmp @ 0x5738b48abf00] Server error: Already publishing
rtmp://localhost/live/stream: Operation not permitted
ffmpeg version 4.2.7-0ubuntu0.1 Copyright (c) 2000-2022 the FFmpeg developers
  built with gcc 9 (Ubuntu 9.4.0-1ubuntu1~20.04.1)
  configuration: --prefix=/usr --extra-version=0ubuntu0.1 --toolchain=hardened --libdir=/usr/lib/x86_64-linux-gnu --incdir=/usr/include/x86_64-linux-gnu --arch=amd64 --enable-gpl --disable-stripping --enable-avresample --disable-filter=resample --enable-avisynth --enable-gnutls --enable-ladspa --enable-libaom --enable-libass --enable-libbluray --enable-libbs2b --enable-libcaca --enable-libcdio --enable-libcodec2 --enable-libflite --enable-libfontconfig --enable-libfreetype --enable-libfribidi --enable-libgme --enable-libgsm --enable-libjack --enable-libmp3lame --enable-libmysofa --enable-libopenjpeg --enable-libopenmpt --enable-libopus --enable-libpulse --enable-librsvg --enable-librubberband --enable-libshine --enable-libsnappy --enable-libsoxr --enable-libspeex --enable-libssh --enable-libtheora --enable-libtwolame --enable-libvidstab --enable-libvorbis --enable-libvpx --enable-libwavpack --enable-libwebp --enable-libx265 --enable-libxml2 --enable-libxvid --enable-libzmq --enable-libzvbi --enable-lv2 --enable-omx --enable-openal --enable-opencl --enable-opengl --enable-sdl2 --enable-libdc1394 --enable-libdrm --enable-libiec61883 --enable-nvenc --enable-chromaprint --enable-frei0r --enable-libx264 --enable-shared
  libavutil      56. 31.100 / 56. 31.100
  libavcodec     58. 54.100 / 58. 54.100
  libavformat    58. 29.100 / 58. 29.100
  libavdevice    58.  8.100 / 58.  8.100
  libavfilter     7. 57.100 /  7. 57.100
  libavresample   4.  0.  0 /  4.  0.  0
  libswscale      5.  5.100 /  5.  5.100
  libswresample   3.  5.100 /  3.  5.100
  libpostproc    55.  5.100 / 55.  5.100
Input #0, mov,mp4,m4a,3gp,3g2,mj2, from './tmp_video/ai_stream.mp4':
  Metadata:
    major_brand     : isom
    minor_version   : 512
    compatible_brands: isomiso2avc1mp41
    encoder         : Lavf58.76.100
  Duration: 00:00:30.38, start: 0.000000, bitrate: 921 kb/s
    Stream #0:0(und): Video: h264 (High) (avc1 / 0x31637661), yuv420p, 576x768, 873 kb/s, 18 fps, 18 tbr, 18432 tbn, 36 tbc (default)
    Metadata:
      handler_name    : VideoHandler
    Stream #0:1(und): Audio: aac (LC) (mp4a / 0x6134706D), 44100 Hz, mono, fltp, 53 kb/s (default)
    Metadata:
      handler_name    : SoundHandler
[rtmp @ 0x5e48e2e29f00] Server error: Already publishing
rtmp://localhost/live/stream: Operation not permitted
ffmpeg version 4.2.7-0ubuntu0.1 Copyright (c) 2000-2022 the FFmpeg developers
  built with gcc 9 (Ubuntu 9.4.0-1ubuntu1~20.04.1)
  configuration: --prefix=/usr --extra-version=0ubuntu0.1 --toolchain=hardened --libdir=/usr/lib/x86_64-linux-gnu --incdir=/usr/include/x86_64-linux-gnu --arch=amd64 --enable-gpl --disable-stripping --enable-avresample --disable-filter=resample --enable-avisynth --enable-gnutls --enable-ladspa --enable-libaom --enable-libass --enable-libbluray --enable-libbs2b --enable-libcaca --enable-libcdio --enable-libcodec2 --enable-libflite --enable-libfontconfig --enable-libfreetype --enable-libfribidi --enable-libgme --enable-libgsm --enable-libjack --enable-libmp3lame --enable-libmysofa --enable-libopenjpeg --enable-libopenmpt --enable-libopus --enable-libpulse --enable-librsvg --enable-librubberband --enable-libshine --enable-libsnappy --enable-libsoxr --enable-libspeex --enable-libssh --enable-libtheora --enable-libtwolame --enable-libvidstab --enable-libvorbis --enable-libvpx --enable-libwavpack --enable-libwebp --enable-libx265 --enable-libxml2 --enable-libxvid --enable-libzmq --enable-libzvbi --enable-lv2 --enable-omx --enable-openal --enable-opencl --enable-opengl --enable-sdl2 --enable-libdc1394 --enable-libdrm --enable-libiec61883 --enable-nvenc --enable-chromaprint --enable-frei0r --enable-libx264 --enable-shared
  libavutil      56. 31.100 / 56. 31.100
  libavcodec     58. 54.100 / 58. 54.100
  libavformat    58. 29.100 / 58. 29.100
  libavdevice    58.  8.100 / 58.  8.100
  libavfilter     7. 57.100 /  7. 57.100
  libavresample   4.  0.  0 /  4.  0.  0
  libswscale      5.  5.100 /  5.  5.100
  libswresample   3.  5.100 /  3.  5.100
  libpostproc    55.  5.100 / 55.  5.100
Input #0, mov,mp4,m4a,3gp,3g2,mj2, from './tmp_video/ai_stream.mp4':
  Metadata:
    major_brand     : isom
    minor_version   : 512
    compatible_brands: isomiso2avc1mp41
    encoder         : Lavf58.76.100
  Duration: 00:00:30.38, start: 0.000000, bitrate: 921 kb/s
    Stream #0:0(und): Video: h264 (High) (avc1 / 0x31637661), yuv420p, 576x768, 873 kb/s, 18 fps, 18 tbr, 18432 tbn, 36 tbc (default)
    Metadata:
      handler_name    : VideoHandler
    Stream #0:1(und): Audio: aac (LC) (mp4a / 0x6134706D), 44100 Hz, mono, fltp, 53 kb/s (default)
    Metadata:
      handler_name    : SoundHandler
[rtmp @ 0x5e07f0adef00] Server error: Already publishing
rtmp://localhost/live/stream: Operation not permitted
ffmpeg version 4.2.7-0ubuntu0.1 Copyright (c) 2000-2022 the FFmpeg developers
  built with gcc 9 (Ubuntu 9.4.0-1ubuntu1~20.04.1)
  configuration: --prefix=/usr --extra-version=0ubuntu0.1 --toolchain=hardened --libdir=/usr/lib/x86_64-linux-gnu --incdir=/usr/include/x86_64-linux-gnu --arch=amd64 --enable-gpl --disable-stripping --enable-avresample --disable-filter=resample --enable-avisynth --enable-gnutls --enable-ladspa --enable-libaom --enable-libass --enable-libbluray --enable-libbs2b --enable-libcaca --enable-libcdio --enable-libcodec2 --enable-libflite --enable-libfontconfig --enable-libfreetype --enable-libfribidi --enable-libgme --enable-libgsm --enable-libjack --enable-libmp3lame --enable-libmysofa --enable-libopenjpeg --enable-libopenmpt --enable-libopus --enable-libpulse --enable-librsvg --enable-librubberband --enable-libshine --enable-libsnappy --enable-libsoxr --enable-libspeex --enable-libssh --enable-libtheora --enable-libtwolame --enable-libvidstab --enable-libvorbis --enable-libvpx --enable-libwavpack --enable-libwebp --enable-libx265 --enable-libxml2 --enable-libxvid --enable-libzmq --enable-libzvbi --enable-lv2 --enable-omx --enable-openal --enable-opencl --enable-opengl --enable-sdl2 --enable-libdc1394 --enable-libdrm --enable-libiec61883 --enable-nvenc --enable-chromaprint --enable-frei0r --enable-libx264 --enable-shared
  libavutil      56. 31.100 / 56. 31.100
  libavcodec     58. 54.100 / 58. 54.100
  libavformat    58. 29.100 / 58. 29.100
  libavdevice    58.  8.100 / 58.  8.100
  libavfilter     7. 57.100 /  7. 57.100
  libavresample   4.  0.  0 /  4.  0.  0
  libswscale      5.  5.100 /  5.  5.100
  libswresample   3.  5.100 /  3.  5.100
  libpostproc    55.  5.100 / 55.  5.100
Input #0, mov,mp4,m4a,3gp,3g2,mj2, from './tmp_video/ai_stream.mp4':
  Metadata:
    major_brand     : isom
    minor_version   : 512
    compatible_brands: isomiso2avc1mp41
    encoder         : Lavf58.76.100
  Duration: 00:00:30.38, start: 0.000000, bitrate: 921 kb/s
    Stream #0:0(und): Video: h264 (High) (avc1 / 0x31637661), yuv420p, 576x768, 873 kb/s, 18 fps, 18 tbr, 18432 tbn, 36 tbc (default)
    Metadata:
      handler_name    : VideoHandler
    Stream #0:1(und): Audio: aac (LC) (mp4a / 0x6134706D), 44100 Hz, mono, fltp, 53 kb/s (default)
    Metadata:
      handler_name    : SoundHandler
[rtmp @ 0x588527062f00] Server error: Already publishing
rtmp://localhost/live/stream: Operation not permitted
ffmpeg version 4.2.7-0ubuntu0.1 Copyright (c) 2000-2022 the FFmpeg developers
  built with gcc 9 (Ubuntu 9.4.0-1ubuntu1~20.04.1)
  configuration: --prefix=/usr --extra-version=0ubuntu0.1 --toolchain=hardened --libdir=/usr/lib/x86_64-linux-gnu --incdir=/usr/include/x86_64-linux-gnu --arch=amd64 --enable-gpl --disable-stripping --enable-avresample --disable-filter=resample --enable-avisynth --enable-gnutls --enable-ladspa --enable-libaom --enable-libass --enable-libbluray --enable-libbs2b --enable-libcaca --enable-libcdio --enable-libcodec2 --enable-libflite --enable-libfontconfig --enable-libfreetype --enable-libfribidi --enable-libgme --enable-libgsm --enable-libjack --enable-libmp3lame --enable-libmysofa --enable-libopenjpeg --enable-libopenmpt --enable-libopus --enable-libpulse --enable-librsvg --enable-librubberband --enable-libshine --enable-libsnappy --enable-libsoxr --enable-libspeex --enable-libssh --enable-libtheora --enable-libtwolame --enable-libvidstab --enable-libvorbis --enable-libvpx --enable-libwavpack --enable-libwebp --enable-libx265 --enable-libxml2 --enable-libxvid --enable-libzmq --enable-libzvbi --enable-lv2 --enable-omx --enable-openal --enable-opencl --enable-opengl --enable-sdl2 --enable-libdc1394 --enable-libdrm --enable-libiec61883 --enable-nvenc --enable-chromaprint --enable-frei0r --enable-libx264 --enable-shared
  libavutil      56. 31.100 / 56. 31.100
  libavcodec     58. 54.100 / 58. 54.100
  libavformat    58. 29.100 / 58. 29.100
  libavdevice    58.  8.100 / 58.  8.100
  libavfilter     7. 57.100 /  7. 57.100
  libavresample   4.  0.  0 /  4.  0.  0
  libswscale      5.  5.100 /  5.  5.100
  libswresample   3.  5.100 /  3.  5.100
  libpostproc    55.  5.100 / 55.  5.100
Input #0, mov,mp4,m4a,3gp,3g2,mj2, from './tmp_video/ai_stream.mp4':
  Metadata:
    major_brand     : isom
    minor_version   : 512
    compatible_brands: isomiso2avc1mp41
    encoder         : Lavf58.76.100
  Duration: 00:00:30.38, start: 0.000000, bitrate: 921 kb/s
    Stream #0:0(und): Video: h264 (High) (avc1 / 0x31637661), yuv420p, 576x768, 873 kb/s, 18 fps, 18 tbr, 18432 tbn, 36 tbc (default)
    Metadata:
      handler_name    : VideoHandler
    Stream #0:1(und): Audio: aac (LC) (mp4a / 0x6134706D), 44100 Hz, mono, fltp, 53 kb/s (default)
    Metadata:
      handler_name    : SoundHandler
[rtmp @ 0x5e939a3a4f00] Server error: Already publishing
rtmp://localhost/live/stream: Operation not permitted
ffmpeg version 4.2.7-0ubuntu0.1 Copyright (c) 2000-2022 the FFmpeg developers
  built with gcc 9 (Ubuntu 9.4.0-1ubuntu1~20.04.1)
  configuration: --prefix=/usr --extra-version=0ubuntu0.1 --toolchain=hardened --libdir=/usr/lib/x86_64-linux-gnu --incdir=/usr/include/x86_64-linux-gnu --arch=amd64 --enable-gpl --disable-stripping --enable-avresample --disable-filter=resample --enable-avisynth --enable-gnutls --enable-ladspa --enable-libaom --enable-libass --enable-libbluray --enable-libbs2b --enable-libcaca --enable-libcdio --enable-libcodec2 --enable-libflite --enable-libfontconfig --enable-libfreetype --enable-libfribidi --enable-libgme --enable-libgsm --enable-libjack --enable-libmp3lame --enable-libmysofa --enable-libopenjpeg --enable-libopenmpt --enable-libopus --enable-libpulse --enable-librsvg --enable-librubberband --enable-libshine --enable-libsnappy --enable-libsoxr --enable-libspeex --enable-libssh --enable-libtheora --enable-libtwolame --enable-libvidstab --enable-libvorbis --enable-libvpx --enable-libwavpack --enable-libwebp --enable-libx265 --enable-libxml2 --enable-libxvid --enable-libzmq --enable-libzvbi --enable-lv2 --enable-omx --enable-openal --enable-opencl --enable-opengl --enable-sdl2 --enable-libdc1394 --enable-libdrm --enable-libiec61883 --enable-nvenc --enable-chromaprint --enable-frei0r --enable-libx264 --enable-shared
  libavutil      56. 31.100 / 56. 31.100
  libavcodec     58. 54.100 / 58. 54.100
  libavformat    58. 29.100 / 58. 29.100
  libavdevice    58.  8.100 / 58.  8.100
  libavfilter     7. 57.100 /  7. 57.100
  libavresample   4.  0.  0 /  4.  0.  0
  libswscale      5.  5.100 /  5.  5.100
  libswresample   3.  5.100 /  3.  5.100
  libpostproc    55.  5.100 / 55.  5.100
Input #0, mov,mp4,m4a,3gp,3g2,mj2, from './tmp_video/ai_stream.mp4':
  Metadata:
    major_brand     : isom
    minor_version   : 512
    compatible_brands: isomiso2avc1mp41
    encoder         : Lavf58.76.100
  Duration: 00:00:30.38, start: 0.000000, bitrate: 921 kb/s
    Stream #0:0(und): Video: h264 (High) (avc1 / 0x31637661), yuv420p, 576x768, 873 kb/s, 18 fps, 18 tbr, 18432 tbn, 36 tbc (default)
    Metadata:
      handler_name    : VideoHandler
    Stream #0:1(und): Audio: aac (LC) (mp4a / 0x6134706D), 44100 Hz, mono, fltp, 53 kb/s (default)
    Metadata:
      handler_name    : SoundHandler
[rtmp @ 0x61413eb3df00] Server error: Already publishing
rtmp://localhost/live/stream: Operation not permitted
ffmpeg version 4.2.7-0ubuntu0.1 Copyright (c) 2000-2022 the FFmpeg developers
  built with gcc 9 (Ubuntu 9.4.0-1ubuntu1~20.04.1)
  configuration: --prefix=/usr --extra-version=0ubuntu0.1 --toolchain=hardened --libdir=/usr/lib/x86_64-linux-gnu --incdir=/usr/include/x86_64-linux-gnu --arch=amd64 --enable-gpl --disable-stripping --enable-avresample --disable-filter=resample --enable-avisynth --enable-gnutls --enable-ladspa --enable-libaom --enable-libass --enable-libbluray --enable-libbs2b --enable-libcaca --enable-libcdio --enable-libcodec2 --enable-libflite --enable-libfontconfig --enable-libfreetype --enable-libfribidi --enable-libgme --enable-libgsm --enable-libjack --enable-libmp3lame --enable-libmysofa --enable-libopenjpeg --enable-libopenmpt --enable-libopus --enable-libpulse --enable-librsvg --enable-librubberband --enable-libshine --enable-libsnappy --enable-libsoxr --enable-libspeex --enable-libssh --enable-libtheora --enable-libtwolame --enable-libvidstab --enable-libvorbis --enable-libvpx --enable-libwavpack --enable-libwebp --enable-libx265 --enable-libxml2 --enable-libxvid --enable-libzmq --enable-libzvbi --enable-lv2 --enable-omx --enable-openal --enable-opencl --enable-opengl --enable-sdl2 --enable-libdc1394 --enable-libdrm --enable-libiec61883 --enable-nvenc --enable-chromaprint --enable-frei0r --enable-libx264 --enable-shared
  libavutil      56. 31.100 / 56. 31.100
  libavcodec     58. 54.100 / 58. 54.100
  libavformat    58. 29.100 / 58. 29.100
  libavdevice    58.  8.100 / 58.  8.100
  libavfilter     7. 57.100 /  7. 57.100
  libavresample   4.  0.  0 /  4.  0.  0
  libswscale      5.  5.100 /  5.  5.100
  libswresample   3.  5.100 /  3.  5.100
  libpostproc    55.  5.100 / 55.  5.100
Input #0, mov,mp4,m4a,3gp,3g2,mj2, from './tmp_video/ai_stream.mp4':
  Metadata:
    major_brand     : isom
    minor_version   : 512
    compatible_brands: isomiso2avc1mp41
    encoder         : Lavf58.76.100
  Duration: 00:00:30.38, start: 0.000000, bitrate: 921 kb/s
    Stream #0:0(und): Video: h264 (High) (avc1 / 0x31637661), yuv420p, 576x768, 873 kb/s, 18 fps, 18 tbr, 18432 tbn, 36 tbc (default)
    Metadata:
      handler_name    : VideoHandler
    Stream #0:1(und): Audio: aac (LC) (mp4a / 0x6134706D), 44100 Hz, mono, fltp, 53 kb/s (default)
    Metadata:
      handler_name    : SoundHandler
[rtmp @ 0x60ed51fc8f00] Server error: Already publishing
rtmp://localhost/live/stream: Operation not permitted
ffmpeg version 4.2.7-0ubuntu0.1 Copyright (c) 2000-2022 the FFmpeg developers
  built with gcc 9 (Ubuntu 9.4.0-1ubuntu1~20.04.1)
  configuration: --prefix=/usr --extra-version=0ubuntu0.1 --toolchain=hardened --libdir=/usr/lib/x86_64-linux-gnu --incdir=/usr/include/x86_64-linux-gnu --arch=amd64 --enable-gpl --disable-stripping --enable-avresample --disable-filter=resample --enable-avisynth --enable-gnutls --enable-ladspa --enable-libaom --enable-libass --enable-libbluray --enable-libbs2b --enable-libcaca --enable-libcdio --enable-libcodec2 --enable-libflite --enable-libfontconfig --enable-libfreetype --enable-libfribidi --enable-libgme --enable-libgsm --enable-libjack --enable-libmp3lame --enable-libmysofa --enable-libopenjpeg --enable-libopenmpt --enable-libopus --enable-libpulse --enable-librsvg --enable-librubberband --enable-libshine --enable-libsnappy --enable-libsoxr --enable-libspeex --enable-libssh --enable-libtheora --enable-libtwolame --enable-libvidstab --enable-libvorbis --enable-libvpx --enable-libwavpack --enable-libwebp --enable-libx265 --enable-libxml2 --enable-libxvid --enable-libzmq --enable-libzvbi --enable-lv2 --enable-omx --enable-openal --enable-opencl --enable-opengl --enable-sdl2 --enable-libdc1394 --enable-libdrm --enable-libiec61883 --enable-nvenc --enable-chromaprint --enable-frei0r --enable-libx264 --enable-shared
  libavutil      56. 31.100 / 56. 31.100
  libavcodec     58. 54.100 / 58. 54.100
  libavformat    58. 29.100 / 58. 29.100
  libavdevice    58.  8.100 / 58.  8.100
  libavfilter     7. 57.100 /  7. 57.100
  libavresample   4.  0.  0 /  4.  0.  0
  libswscale      5.  5.100 /  5.  5.100
  libswresample   3.  5.100 /  3.  5.100
  libpostproc    55.  5.100 / 55.  5.100
Input #0, mov,mp4,m4a,3gp,3g2,mj2, from './tmp_video/ai_stream.mp4':
  Metadata:
    major_brand     : isom
    minor_version   : 512
    compatible_brands: isomiso2avc1mp41
    encoder         : Lavf58.76.100
  Duration: 00:00:30.38, start: 0.000000, bitrate: 921 kb/s
    Stream #0:0(und): Video: h264 (High) (avc1 / 0x31637661), yuv420p, 576x768, 873 kb/s, 18 fps, 18 tbr, 18432 tbn, 36 tbc (default)
    Metadata:
      handler_name    : VideoHandler
    Stream #0:1(und): Audio: aac (LC) (mp4a / 0x6134706D), 44100 Hz, mono, fltp, 53 kb/s (default)
    Metadata:
      handler_name    : SoundHandler
[rtmp @ 0x5a023dbd9f00] Server error: Already publishing
rtmp://localhost/live/stream: Operation not permitted
ffmpeg version 4.2.7-0ubuntu0.1 Copyright (c) 2000-2022 the FFmpeg developers
  built with gcc 9 (Ubuntu 9.4.0-1ubuntu1~20.04.1)
  configuration: --prefix=/usr --extra-version=0ubuntu0.1 --toolchain=hardened --libdir=/usr/lib/x86_64-linux-gnu --incdir=/usr/include/x86_64-linux-gnu --arch=amd64 --enable-gpl --disable-stripping --enable-avresample --disable-filter=resample --enable-avisynth --enable-gnutls --enable-ladspa --enable-libaom --enable-libass --enable-libbluray --enable-libbs2b --enable-libcaca --enable-libcdio --enable-libcodec2 --enable-libflite --enable-libfontconfig --enable-libfreetype --enable-libfribidi --enable-libgme --enable-libgsm --enable-libjack --enable-libmp3lame --enable-libmysofa --enable-libopenjpeg --enable-libopenmpt --enable-libopus --enable-libpulse --enable-librsvg --enable-librubberband --enable-libshine --enable-libsnappy --enable-libsoxr --enable-libspeex --enable-libssh --enable-libtheora --enable-libtwolame --enable-libvidstab --enable-libvorbis --enable-libvpx --enable-libwavpack --enable-libwebp --enable-libx265 --enable-libxml2 --enable-libxvid --enable-libzmq --enable-libzvbi --enable-lv2 --enable-omx --enable-openal --enable-opencl --enable-opengl --enable-sdl2 --enable-libdc1394 --enable-libdrm --enable-libiec61883 --enable-nvenc --enable-chromaprint --enable-frei0r --enable-libx264 --enable-shared
  libavutil      56. 31.100 / 56. 31.100
  libavcodec     58. 54.100 / 58. 54.100
  libavformat    58. 29.100 / 58. 29.100
  libavdevice    58.  8.100 / 58.  8.100
  libavfilter     7. 57.100 /  7. 57.100
  libavresample   4.  0.  0 /  4.  0.  0
  libswscale      5.  5.100 /  5.  5.100
  libswresample   3.  5.100 /  3.  5.100
  libpostproc    55.  5.100 / 55.  5.100
Input #0, mov,mp4,m4a,3gp,3g2,mj2, from './tmp_video/ai_stream.mp4':
  Metadata:
    major_brand     : isom
    minor_version   : 512
    compatible_brands: isomiso2avc1mp41
    encoder         : Lavf58.76.100
  Duration: 00:00:30.38, start: 0.000000, bitrate: 921 kb/s
    Stream #0:0(und): Video: h264 (High) (avc1 / 0x31637661), yuv420p, 576x768, 873 kb/s, 18 fps, 18 tbr, 18432 tbn, 36 tbc (default)
    Metadata:
      handler_name    : VideoHandler
    Stream #0:1(und): Audio: aac (LC) (mp4a / 0x6134706D), 44100 Hz, mono, fltp, 53 kb/s (default)
    Metadata:
      handler_name    : SoundHandler
[rtmp @ 0x625584efcf00] Server error: Already publishing
rtmp://localhost/live/stream: Operation not permitted
ffmpeg version 4.2.7-0ubuntu0.1 Copyright (c) 2000-2022 the FFmpeg developers
  built with gcc 9 (Ubuntu 9.4.0-1ubuntu1~20.04.1)
  configuration: --prefix=/usr --extra-version=0ubuntu0.1 --toolchain=hardened --libdir=/usr/lib/x86_64-linux-gnu --incdir=/usr/include/x86_64-linux-gnu --arch=amd64 --enable-gpl --disable-stripping --enable-avresample --disable-filter=resample --enable-avisynth --enable-gnutls --enable-ladspa --enable-libaom --enable-libass --enable-libbluray --enable-libbs2b --enable-libcaca --enable-libcdio --enable-libcodec2 --enable-libflite --enable-libfontconfig --enable-libfreetype --enable-libfribidi --enable-libgme --enable-libgsm --enable-libjack --enable-libmp3lame --enable-libmysofa --enable-libopenjpeg --enable-libopenmpt --enable-libopus --enable-libpulse --enable-librsvg --enable-librubberband --enable-libshine --enable-libsnappy --enable-libsoxr --enable-libspeex --enable-libssh --enable-libtheora --enable-libtwolame --enable-libvidstab --enable-libvorbis --enable-libvpx --enable-libwavpack --enable-libwebp --enable-libx265 --enable-libxml2 --enable-libxvid --enable-libzmq --enable-libzvbi --enable-lv2 --enable-omx --enable-openal --enable-opencl --enable-opengl --enable-sdl2 --enable-libdc1394 --enable-libdrm --enable-libiec61883 --enable-nvenc --enable-chromaprint --enable-frei0r --enable-libx264 --enable-shared
  libavutil      56. 31.100 / 56. 31.100
  libavcodec     58. 54.100 / 58. 54.100
  libavformat    58. 29.100 / 58. 29.100
  libavdevice    58.  8.100 / 58.  8.100
  libavfilter     7. 57.100 /  7. 57.100
  libavresample   4.  0.  0 /  4.  0.  0
  libswscale      5.  5.100 /  5.  5.100
  libswresample   3.  5.100 /  3.  5.100
  libpostproc    55.  5.100 / 55.  5.100
Input #0, mov,mp4,m4a,3gp,3g2,mj2, from './tmp_video/ai_stream.mp4':
  Metadata:
    major_brand     : isom
    minor_version   : 512
    compatible_brands: isomiso2avc1mp41
    encoder         : Lavf58.76.100
  Duration: 00:00:30.38, start: 0.000000, bitrate: 921 kb/s
    Stream #0:0(und): Video: h264 (High) (avc1 / 0x31637661), yuv420p, 576x768, 873 kb/s, 18 fps, 18 tbr, 18432 tbn, 36 tbc (default)
    Metadata:
      handler_name    : VideoHandler
    Stream #0:1(und): Audio: aac (LC) (mp4a / 0x6134706D), 44100 Hz, mono, fltp, 53 kb/s (default)
    Metadata:
      handler_name    : SoundHandler
[rtmp @ 0x57eb7f113f00] Server error: Already publishing
rtmp://localhost/live/stream: Operation not permitted
ffmpeg version 4.2.7-0ubuntu0.1 Copyright (c) 2000-2022 the FFmpeg developers
  built with gcc 9 (Ubuntu 9.4.0-1ubuntu1~20.04.1)
  configuration: --prefix=/usr --extra-version=0ubuntu0.1 --toolchain=hardened --libdir=/usr/lib/x86_64-linux-gnu --incdir=/usr/include/x86_64-linux-gnu --arch=amd64 --enable-gpl --disable-stripping --enable-avresample --disable-filter=resample --enable-avisynth --enable-gnutls --enable-ladspa --enable-libaom --enable-libass --enable-libbluray --enable-libbs2b --enable-libcaca --enable-libcdio --enable-libcodec2 --enable-libflite --enable-libfontconfig --enable-libfreetype --enable-libfribidi --enable-libgme --enable-libgsm --enable-libjack --enable-libmp3lame --enable-libmysofa --enable-libopenjpeg --enable-libopenmpt --enable-libopus --enable-libpulse --enable-librsvg --enable-librubberband --enable-libshine --enable-libsnappy --enable-libsoxr --enable-libspeex --enable-libssh --enable-libtheora --enable-libtwolame --enable-libvidstab --enable-libvorbis --enable-libvpx --enable-libwavpack --enable-libwebp --enable-libx265 --enable-libxml2 --enable-libxvid --enable-libzmq --enable-libzvbi --enable-lv2 --enable-omx --enable-openal --enable-opencl --enable-opengl --enable-sdl2 --enable-libdc1394 --enable-libdrm --enable-libiec61883 --enable-nvenc --enable-chromaprint --enable-frei0r --enable-libx264 --enable-shared
  libavutil      56. 31.100 / 56. 31.100
  libavcodec     58. 54.100 / 58. 54.100
  libavformat    58. 29.100 / 58. 29.100
  libavdevice    58.  8.100 / 58.  8.100
  libavfilter     7. 57.100 /  7. 57.100
  libavresample   4.  0.  0 /  4.  0.  0
  libswscale      5.  5.100 /  5.  5.100
  libswresample   3.  5.100 /  3.  5.100
  libpostproc    55.  5.100 / 55.  5.100
Input #0, mov,mp4,m4a,3gp,3g2,mj2, from './tmp_video/ai_stream.mp4':
  Metadata:
    major_brand     : isom
    minor_version   : 512
    compatible_brands: isomiso2avc1mp41
    encoder         : Lavf58.76.100
  Duration: 00:00:30.38, start: 0.000000, bitrate: 921 kb/s
    Stream #0:0(und): Video: h264 (High) (avc1 / 0x31637661), yuv420p, 576x768, 873 kb/s, 18 fps, 18 tbr, 18432 tbn, 36 tbc (default)
    Metadata:
      handler_name    : VideoHandler
    Stream #0:1(und): Audio: aac (LC) (mp4a / 0x6134706D), 44100 Hz, mono, fltp, 53 kb/s (default)
    Metadata:
      handler_name    : SoundHandler
[rtmp @ 0x5a46c4420f00] Server error: Already publishing
rtmp://localhost/live/stream: Operation not permitted
ffmpeg version 4.2.7-0ubuntu0.1 Copyright (c) 2000-2022 the FFmpeg developers
  built with gcc 9 (Ubuntu 9.4.0-1ubuntu1~20.04.1)
  configuration: --prefix=/usr --extra-version=0ubuntu0.1 --toolchain=hardened --libdir=/usr/lib/x86_64-linux-gnu --incdir=/usr/include/x86_64-linux-gnu --arch=amd64 --enable-gpl --disable-stripping --enable-avresample --disable-filter=resample --enable-avisynth --enable-gnutls --enable-ladspa --enable-libaom --enable-libass --enable-libbluray --enable-libbs2b --enable-libcaca --enable-libcdio --enable-libcodec2 --enable-libflite --enable-libfontconfig --enable-libfreetype --enable-libfribidi --enable-libgme --enable-libgsm --enable-libjack --enable-libmp3lame --enable-libmysofa --enable-libopenjpeg --enable-libopenmpt --enable-libopus --enable-libpulse --enable-librsvg --enable-librubberband --enable-libshine --enable-libsnappy --enable-libsoxr --enable-libspeex --enable-libssh --enable-libtheora --enable-libtwolame --enable-libvidstab --enable-libvorbis --enable-libvpx --enable-libwavpack --enable-libwebp --enable-libx265 --enable-libxml2 --enable-libxvid --enable-libzmq --enable-libzvbi --enable-lv2 --enable-omx --enable-openal --enable-opencl --enable-opengl --enable-sdl2 --enable-libdc1394 --enable-libdrm --enable-libiec61883 --enable-nvenc --enable-chromaprint --enable-frei0r --enable-libx264 --enable-shared
  libavutil      56. 31.100 / 56. 31.100
  libavcodec     58. 54.100 / 58. 54.100
  libavformat    58. 29.100 / 58. 29.100
  libavdevice    58.  8.100 / 58.  8.100
  libavfilter     7. 57.100 /  7. 57.100
  libavresample   4.  0.  0 /  4.  0.  0
  libswscale      5.  5.100 /  5.  5.100
  libswresample   3.  5.100 /  3.  5.100
  libpostproc    55.  5.100 / 55.  5.100
Input #0, mov,mp4,m4a,3gp,3g2,mj2, from './tmp_video/ai_stream.mp4':
  Metadata:
    major_brand     : isom
    minor_version   : 512
    compatible_brands: isomiso2avc1mp41
    encoder         : Lavf58.76.100
  Duration: 00:00:30.38, start: 0.000000, bitrate: 921 kb/s
    Stream #0:0(und): Video: h264 (High) (avc1 / 0x31637661), yuv420p, 576x768, 873 kb/s, 18 fps, 18 tbr, 18432 tbn, 36 tbc (default)
    Metadata:
      handler_name    : VideoHandler
    Stream #0:1(und): Audio: aac (LC) (mp4a / 0x6134706D), 44100 Hz, mono, fltp, 53 kb/s (default)
    Metadata:
      handler_name    : SoundHandler
[rtmp @ 0x5c55bb6a4f00] Server error: Already publishing
rtmp://localhost/live/stream: Operation not permitted
ffmpeg version 4.2.7-0ubuntu0.1 Copyright (c) 2000-2022 the FFmpeg developers
  built with gcc 9 (Ubuntu 9.4.0-1ubuntu1~20.04.1)
  configuration: --prefix=/usr --extra-version=0ubuntu0.1 --toolchain=hardened --libdir=/usr/lib/x86_64-linux-gnu --incdir=/usr/include/x86_64-linux-gnu --arch=amd64 --enable-gpl --disable-stripping --enable-avresample --disable-filter=resample --enable-avisynth --enable-gnutls --enable-ladspa --enable-libaom --enable-libass --enable-libbluray --enable-libbs2b --enable-libcaca --enable-libcdio --enable-libcodec2 --enable-libflite --enable-libfontconfig --enable-libfreetype --enable-libfribidi --enable-libgme --enable-libgsm --enable-libjack --enable-libmp3lame --enable-libmysofa --enable-libopenjpeg --enable-libopenmpt --enable-libopus --enable-libpulse --enable-librsvg --enable-librubberband --enable-libshine --enable-libsnappy --enable-libsoxr --enable-libspeex --enable-libssh --enable-libtheora --enable-libtwolame --enable-libvidstab --enable-libvorbis --enable-libvpx --enable-libwavpack --enable-libwebp --enable-libx265 --enable-libxml2 --enable-libxvid --enable-libzmq --enable-libzvbi --enable-lv2 --enable-omx --enable-openal --enable-opencl --enable-opengl --enable-sdl2 --enable-libdc1394 --enable-libdrm --enable-libiec61883 --enable-nvenc --enable-chromaprint --enable-frei0r --enable-libx264 --enable-shared
  libavutil      56. 31.100 / 56. 31.100
  libavcodec     58. 54.100 / 58. 54.100
  libavformat    58. 29.100 / 58. 29.100
  libavdevice    58.  8.100 / 58.  8.100
  libavfilter     7. 57.100 /  7. 57.100
  libavresample   4.  0.  0 /  4.  0.  0
  libswscale      5.  5.100 /  5.  5.100
  libswresample   3.  5.100 /  3.  5.100
  libpostproc    55.  5.100 / 55.  5.100
Input #0, mov,mp4,m4a,3gp,3g2,mj2, from './tmp_video/ai_stream.mp4':
  Metadata:
    major_brand     : isom
    minor_version   : 512
    compatible_brands: isomiso2avc1mp41
    encoder         : Lavf58.76.100
  Duration: 00:00:30.38, start: 0.000000, bitrate: 921 kb/s
    Stream #0:0(und): Video: h264 (High) (avc1 / 0x31637661), yuv420p, 576x768, 873 kb/s, 18 fps, 18 tbr, 18432 tbn, 36 tbc (default)
    Metadata:
      handler_name    : VideoHandler
    Stream #0:1(und): Audio: aac (LC) (mp4a / 0x6134706D), 44100 Hz, mono, fltp, 53 kb/s (default)
    Metadata:
      handler_name    : SoundHandler
[rtmp @ 0x577087ecaf00] Server error: Already publishing
rtmp://localhost/live/stream: Operation not permitted
e=  121 fps= 18 q=-1.0 size=     820kB time=00:00:06.57 bitrate=1022.3kbits/s speed=   1x    frame=  130 fps= 18 q=-1.0 size=     871kB time=00:00:07.08 bitrate=1007.9kbits/s speed=   1x    frame=  139 fps= 18 q=-1.0 size=     945kB time=00:00:07.59 bitrate=1019.5kbits/s speed=   1x    frame=  148 fps= 18 q=-1.0 size=    1028kB time=00:00:08.10 bitrate=1039.4kbits/s speed=   1x    frame=  158 fps= 18 q=-1.0 size=    1092kB time=00:00:08.61 bitrate=1038.9kbits/s speed=   1x    frame=  166 fps= 18 q=-1.0 size=    1133kB time=00:00:09.10 bitrate=1019.8kbits/s speed=   1x    frame=  176 fps= 18 q=-1.0 size=    1178kB time=00:00:09.61 bitrate=1004.2kbits/s speed=   1x    frame=  185 fps= 18 q=-1.0 size=    1218kB time=00:00:10.12 bitrate= 986.0kbits/s speed=   1x    frame=  194 fps= 18 q=-1.0 size=    1257kB time=00:00:10.61 bitrate= 970.3kbits/s speed=0.999x    frame=  203 fps= 18 q=-1.0 size=    1303kB time=00:00:11.14 bitrate= 957.5kbits/s speed=   1x    frame=  212 fps= 18 q=-1.0 size=    1362kB time=00:00:11.63 bitrate= 959.3kbits/s speed=   1x    frame=  221 fps= 18 q=-1.0 size=    1443kB time=00:00:12.14 bitrate= 973.7kbits/s speed=   1x    frame=  230 fps= 18 q=-1.0 size=    1504kB time=00:00:12.65 bitrate= 973.9kbits/s speed=   1x    frame=  239 fps= 18 q=-1.0 size=    1569kB time=00:00:13.16 bitrate= 976.5kbits/s speed=   1x    frame=  249 fps= 18 q=-1.0 size=    1611kB time=00:00:13.66 bitrate= 965.5kbits/s speed=   1x    frame=  257 fps= 18 q=-1.0 size=    1729kB time=00:00:14.16 bitrate= 999.8kbits/s speed=   1x    frame=  267 fps= 18 q=-1.0 size=    1795kB time=00:00:14.67 bitrate=1002.2kbits/s speed=   1x    frame=  276 fps= 18 q=-1.0 size=    1855kB time=00:00:15.18 bitrate=1000.5kbits/s speed=   1x    frame=  285 fps= 18 q=-1.0 size=    1942kB time=00:00:15.69 bitrate=1013.4kbits/s speed=   1x    frame=  294 fps= 18 q=-1.0 size=    2004kB time=00:00:16.20 bitrate=1012.9kbits/s speed=   1x    frame=  303 fps= 18 q=-1.0 size=    2060kB time=00:00:16.71 bitrate=1009.4kbits/s speed=   1x    frame=  312 fps= 18 q=-1.0 size=    2103kB time=00:00:17.20 bitrate=1001.2kbits/s speed=   1x    frame=  321 fps= 18 q=-1.0 size=    2143kB time=00:00:17.71 bitrate= 991.0kbits/s speed=   1x    frame=  331 fps= 18 q=-1.0 size=    2180kB time=00:00:18.22 bitrate= 980.2kbits/s speed=   1x    frame=  340 fps= 18 q=-1.0 size=    2224kB time=00:00:18.72 bitrate= 973.0kbits/s speed=   1x    frame=  349 fps= 18 q=-1.0 size=    2284kB time=00:00:19.22 bitrate= 973.0kbits/s speed=   1x    frame=  358 fps= 18 q=-1.0 size=    2347kB time=00:00:19.73 bitrate= 974.3kbits/s speed=   1x    frame=  367 fps= 18 q=-1.0 size=    2420kB time=00:00:20.24 bitrate= 978.9kbits/s speed=   1x    frame=  376 fps= 18 q=-1.0 size=    2477kB time=00:00:20.75 bitrate= 977.4kbits/s speed=   1x    frame=  385 fps= 18 q=-1.0 size=    2521kB time=00:00:21.26 bitrate= 971.0kbits/s speed=   1x    frame=  394 fps= 18 q=-1.0 size=    2550kB time=00:00:21.75 bitrate= 960.2kbits/s speed=   1x    frame=  403 fps= 18 q=-1.0 size=    2610kB time=00:00:22.26 bitrate= 960.0kbits/s speed=   1x    frame=  413 fps= 18 q=-1.0 size=    2670kB time=00:00:22.77 bitrate= 960.3kbits/s speed=   1x    frame=  422 fps= 18 q=-1.0 size=    2723kB time=00:00:23.27 bitrate= 958.4kbits/s speed=   1x    frame=  430 fps= 18 q=-1.0 size=    2778kB time=00:00:23.77 bitrate= 957.3kbits/s speed=   1x    frame=  440 fps= 18 q=-1.0 size=    2857kB time=00:00:24.28 bitrate= 963.7kbits/s speed=   1x    frame=  449 fps= 18 q=-1.0 size=    2903kB time=00:00:24.77 bitrate= 959.7kbits/s speed=   1x    frame=  458 fps= 18 q=-1.0 size=    2938kB time=00:00:25.31 bitrate= 950.8kbits/s speed=   1x    frame=  467 fps= 18 q=-1.0 size=    2973kB time=00:00:25.82 bitrate= 943.2kbits/s speed=   1x    frame=  476 fps= 18 q=-1.0 size=    3033kB time=00:00:26.30 bitrate= 944.5kbits/s speed=   1x    frame=  485 fps= 18 q=-1.0 size=    3090kB time=00:00:26.81 bitrate= 943.7kbits/s speed=   1x    frame=  494 fps= 18 q=-1.0 size=    3175kB time=00:00:27.33 bitrate= 951.7kbits/s speed=   1x    frame=  504 fps= 18 q=-1.0 size=    3277kB time=00:00:27.83 bitrate= 964.5kbits/s speed=   1x    frame=  512 fps= 18 q=-1.0 size=    3334kB time=00:00:28.32 bitrate= 964.1kbits/s speed=   1x    frame=  522 fps= 18 q=-1.0 size=    3377kB time=00:00:28.83 bitrate= 959.4kbits/s speed=   1x    frame=  531 fps= 18 q=-1.0 size=    3409kB time=00:00:29.33 bitrate= 951.9kbits/s speed=   1x    frame=  540 fps= 18 q=-1.0 size=    3429kB time=00:00:29.83 bitrate= 941.5kbits/s speed=   1x    frame=  540 fps= 18 q=-1.0 size=    3429kB time=00:00:30.34 bitrate= 925.6kbits/s speed=   1x    [flv @ 0x559625a03d80] Failed to update header with correct duration.
[flv @ 0x559625a03d80] Failed to update header with correct filesize.
frame=  540 fps= 18 q=-1.0 Lsize=    3430kB time=00:00:30.37 bitrate= 925.0kbits/s speed=   1x    
video:3199kB audio:198kB subtitle:0kB other streams:0kB global headers:0kB muxing overhead: 0.965313%
ffmpeg version 4.2.7-0ubuntu0.1 Copyright (c) 2000-2022 the FFmpeg developers
  built with gcc 9 (Ubuntu 9.4.0-1ubuntu1~20.04.1)
  configuration: --prefix=/usr --extra-version=0ubuntu0.1 --toolchain=hardened --libdir=/usr/lib/x86_64-linux-gnu --incdir=/usr/include/x86_64-linux-gnu --arch=amd64 --enable-gpl --disable-stripping --enable-avresample --disable-filter=resample --enable-avisynth --enable-gnutls --enable-ladspa --enable-libaom --enable-libass --enable-libbluray --enable-libbs2b --enable-libcaca --enable-libcdio --enable-libcodec2 --enable-libflite --enable-libfontconfig --enable-libfreetype --enable-libfribidi --enable-libgme --enable-libgsm --enable-libjack --enable-libmp3lame --enable-libmysofa --enable-libopenjpeg --enable-libopenmpt --enable-libopus --enable-libpulse --enable-librsvg --enable-librubberband --enable-libshine --enable-libsnappy --enable-libsoxr --enable-libspeex --enable-libssh --enable-libtheora --enable-libtwolame --enable-libvidstab --enable-libvorbis --enable-libvpx --enable-libwavpack --enable-libwebp --enable-libx265 --enable-libxml2 --enable-libxvid --enable-libzmq --enable-libzvbi --enable-lv2 --enable-omx --enable-openal --enable-opencl --enable-opengl --enable-sdl2 --enable-libdc1394 --enable-libdrm --enable-libiec61883 --enable-nvenc --enable-chromaprint --enable-frei0r --enable-libx264 --enable-shared
  libavutil      56. 31.100 / 56. 31.100
  libavcodec     58. 54.100 / 58. 54.100
  libavformat    58. 29.100 / 58. 29.100
  libavdevice    58.  8.100 / 58.  8.100
  libavfilter     7. 57.100 /  7. 57.100
  libavresample   4.  0.  0 /  4.  0.  0
  libswscale      5.  5.100 /  5.  5.100
  libswresample   3.  5.100 /  3.  5.100
  libpostproc    55.  5.100 / 55.  5.100
Input #0, mov,mp4,m4a,3gp,3g2,mj2, from './tmp_video/ai_stream.mp4':
  Metadata:
    major_brand     : isom
    minor_version   : 512
    compatible_brands: isomiso2avc1mp41
    encoder         : Lavf58.76.100
  Duration: 00:00:30.38, start: 0.000000, bitrate: 921 kb/s
    Stream #0:0(und): Video: h264 (High) (avc1 / 0x31637661), yuv420p, 576x768, 873 kb/s, 18 fps, 18 tbr, 18432 tbn, 36 tbc (default)
    Metadata:
      handler_name    : VideoHandler
    Stream #0:1(und): Audio: aac (LC) (mp4a / 0x6134706D), 44100 Hz, mono, fltp, 53 kb/s (default)
    Metadata:
      handler_name    : SoundHandler
Output #0, flv, to 'rtmp://localhost/live/stream':
  Metadata:
    major_brand     : isom
    minor_version   : 512
    compatible_brands: isomiso2avc1mp41
    encoder         : Lavf58.29.100
    Stream #0:0(und): Video: h264 (High) ([7][0][0][0] / 0x0007), yuv420p, 576x768, q=2-31, 873 kb/s, 18 fps, 18 tbr, 1k tbn, 18432 tbc (default)
    Metadata:
      handler_name    : VideoHandler
    Stream #0:1(und): Audio: aac (LC) ([10][0][0][0] / 0x000A), 44100 Hz, mono, fltp, 53 kb/s (default)
    Metadata:
      handler_name    : SoundHandler
Stream mapping:
  Stream #0:0 -> #0:0 (copy)
  Stream #0:1 -> #0:1 (copy)
Press [q] to stop, [?] for help
frame=   12 fps=0.0 q=-1.0 size=     141kB time=00:00:00.51 bitrate=2262.5kbits/s speed=1.01x    frame=   21 fps= 21 q=-1.0 size=     213kB time=00:00:01.02 bitrate=1705.9kbits/s speed=1.01x    frame=   30 fps= 20 q=-1.0 size=     258kB time=00:00:01.53 bitrate=1380.0kbits/s speed=1.01x    frame=   39 fps= 19 q=-1.0 size=     297kB time=00:00:02.02 bitrate=1206.0kbits/s speed=   1x    frame=   48 fps= 19 q=-1.0 size=     335kB time=00:00:02.53 bitrate=1083.9kbits/s speed=   1x    frame=   57 fps= 19 q=-1.0 size=     388kB time=00:00:03.04 bitrate=1044.2kbits/s speed=   1x    frame=   66 fps= 19 q=-1.0 size=     440kB time=00:00:03.55 bitrate=1013.7kbits/s speed=   1x    frame=   76 fps= 19 q=-1.0 size=     535kB time=00:00:04.05 bitrate=1080.2kbits/s speed=   1x    frame=   84 fps= 18 q=-1.0 size=     595kB time=00:00:04.55 bitrate=1070.7kbits/s speed=   1x    frame=   94 fps= 19 q=-1.0 size=     663kB time=00:00:05.06 bitrate=1072.6kbits/s speed=   1x    frame=  103 fps= 19 q=-1.0 size=     727kB time=00:00:05.57 bitrate=1068.8kbits/s speed=   1x    frame=  112 fps= 18 q=-1.0 size=     762kB time=00:00:06.08 bitrate=1026.5kbits/s speed=   1x    frame=  121 fps= 18 q=-1.0 size=     820kB time=00:00:06.59 bitrate=1018.7kbits/s speed=   1x    frame=  130 fps= 18 q=-1.0 size=     871kB time=00:00:07.08 bitrate=1007.9kbits/s speed=   1x    frame=  139 fps= 18 q=-1.0 size=     945kB time=00:00:07.59 bitrate=1019.5kbits/s speed=   1x    frame=  148 fps= 18 q=-1.0 size=    1028kB time=00:00:08.10 bitrate=1039.4kbits/s speed=   1x    frame=  158 fps= 18 q=-1.0 size=    1092kB time=00:00:08.61 bitrate=1038.9kbits/s speed=   1x    frame=  167 fps= 18 q=-1.0 size=    1133kB time=00:00:09.11 bitrate=1018.7kbits/s speed=   1x    frame=  176 fps= 18 q=-1.0 size=    1180kB time=00:00:09.61 bitrate=1005.2kbits/s speed=   1x    frame=  185 fps= 18 q=-1.0 size=    1218kB time=00:00:10.12 bitrate= 986.0kbits/s speed=   1x    frame=  194 fps= 18 q=-1.0 size=    1257kB time=00:00:10.63 bitrate= 968.2kbits/s speed=   1x    frame=  203 fps= 18 q=-1.0 size=    1303kB time=00:00:11.14 bitrate= 957.5kbits/s speed=   1x    frame=  212 fps= 18 q=-1.0 size=    1362kB time=00:00:11.65 bitrate= 957.4kbits/s speed=   1x    frame=  221 fps= 18 q=-1.0 size=    1443kB time=00:00:12.14 bitrate= 973.7kbits/s speed=   1x    frame=  230 fps= 18 q=-1.0 size=    1504kB time=00:00:12.65 bitrate= 973.9kbits/s speed=   1x    frame=  239 fps= 18 q=-1.0 size=    1569kB time=00:00:13.16 bitrate= 976.5kbits/s speed=   1x    frame=  249 fps= 18 q=-1.0 size=    1611kB time=00:00:13.66 bitrate= 965.5kbits/s speed=   1x    frame=  257 fps= 18 q=-1.0 size=    1729kB time=00:00:14.16 bitrate= 999.8kbits/s speed=   1x    frame=  267 fps= 18 q=-1.0 size=    1795kB time=00:00:14.67 bitrate=1002.2kbits/s speed=   1x    frame=  276 fps= 18 q=-1.0 size=    1855kB time=00:00:15.18 bitrate=1000.5kbits/s speed=   1x    frame=  285 fps= 18 q=-1.0 size=    1942kB time=00:00:15.69 bitrate=1013.4kbits/s speed=   1x    frame=  294 fps= 18 q=-1.0 size=    2004kB time=00:00:16.20 bitrate=1012.9kbits/s speed=   1x    frame=  303 fps= 18 q=-1.0 size=    2060kB time=00:00:16.69 bitrate=1010.8kbits/s speed=   1x    frame=  312 fps= 18 q=-1.0 size=    2103kB time=00:00:17.20 bitrate=1001.2kbits/s speed=   1x    frame=  321 fps= 18 q=-1.0 size=    2143kB time=00:00:17.71 bitrate= 991.0kbits/s speed=   1x    frame=  331 fps= 18 q=-1.0 size=    2180kB time=00:00:18.22 bitrate= 980.2kbits/s speed=   1x    frame=  340 fps= 18 q=-1.0 size=    2224kB time=00:00:18.72 bitrate= 973.0kbits/s speed=   1x    frame=  349 fps= 18 q=-1.0 size=    2284kB time=00:00:19.22 bitrate= 973.0kbits/s speed=   1x    frame=  358 fps= 18 q=-1.0 size=    2347kB time=00:00:19.73 bitrate= 974.3kbits/s speed=   1x    frame=  367 fps= 18 q=-1.0 size=    2420kB time=00:00:20.24 bitrate= 978.9kbits/s speed=   1x    frame=  376 fps= 18 q=-1.0 size=    2477kB time=00:00:20.75 bitrate= 977.4kbits/s speed=   1x    frame=  385 fps= 18 q=-1.0 size=    2521kB time=00:00:21.26 bitrate= 971.0kbits/s speed=   1x    frame=  395 fps= 18 q=-1.0 size=    2551kB time=00:00:21.77 bitrate= 959.4kbits/s speed=   1x    frame=  403 fps= 18 q=-1.0 size=    2610kB time=00:00:22.26 bitrate= 960.0kbits/s speed=   1x    frame=  413 fps= 18 q=-1.0 size=    2670kB time=00:00:22.77 bitrate= 960.3kbits/s speed=   1x    frame=  422 fps= 18 q=-1.0 size=    2723kB time=00:00:23.27 bitrate= 958.4kbits/s speed=   1x    frame=  431 fps= 18 q=-1.0 size=    2779kB time=00:00:23.77 bitrate= 957.2kbits/s speed=   1x    frame=  440 fps= 18 q=-1.0 size=    2857kB time=00:00:24.28 bitrate= 963.7kbits/s speed=   1x    frame=  449 fps= 18 q=-1.0 size=    2904kB time=00:00:24.79 bitrate= 959.2kbits/s speed=   1x    frame=  458 fps= 18 q=-1.0 size=    2938kB time=00:00:25.31 bitrate= 950.8kbits/s speed=   1x    frame=  467 fps= 18 q=-1.0 size=    2973kB time=00:00:25.82 bitrate= 943.2kbits/s speed=   1x    frame=  476 fps= 18 q=-1.0 size=    3033kB time=00:00:26.33 bitrate= 943.7kbits/s speed=   1x    frame=  486 fps= 18 q=-1.0 size=    3090kB time=00:00:26.83 bitrate= 943.3kbits/s speed=   1x    frame=  494 fps= 18 q=-1.0 size=    3175kB time=00:00:27.33 bitrate= 951.7kbits/s speed=   1x    frame=  504 fps= 18 q=-1.0 size=    3287kB time=00:00:27.84 bitrate= 967.0kbits/s speed=   1x    frame=  513 fps= 18 q=-1.0 size=    3336kB time=00:00:28.35 bitrate= 963.8kbits/s speed=   1x    frame=  522 fps= 18 q=-1.0 size=    3387kB time=00:00:28.86 bitrate= 961.5kbits/s speed=   1x    frame=  531 fps= 18 q=-1.0 size=    3410kB time=00:00:29.37 bitrate= 950.9kbits/s speed=   1x    frame=  540 fps= 18 q=-1.0 size=    3429kB time=00:00:29.86 bitrate= 940.7kbits/s speed=   1x    frame=  540 fps= 18 q=-1.0 size=    3429kB time=00:00:30.37 bitrate= 924.9kbits/s speed=   1x    [flv @ 0x56764ef4dd80] Failed to update header with correct duration.
[flv @ 0x56764ef4dd80] Failed to update header with correct filesize.
frame=  540 fps= 18 q=-1.0 Lsize=    3430kB time=00:00:30.37 bitrate= 925.0kbits/s speed=   1x    
video:3199kB audio:198kB subtitle:0kB other streams:0kB global headers:0kB muxing overhead: 0.965313%
ffmpeg version 4.2.7-0ubuntu0.1 Copyright (c) 2000-2022 the FFmpeg developers
  built with gcc 9 (Ubuntu 9.4.0-1ubuntu1~20.04.1)
  configuration: --prefix=/usr --extra-version=0ubuntu0.1 --toolchain=hardened --libdir=/usr/lib/x86_64-linux-gnu --incdir=/usr/include/x86_64-linux-gnu --arch=amd64 --enable-gpl --disable-stripping --enable-avresample --disable-filter=resample --enable-avisynth --enable-gnutls --enable-ladspa --enable-libaom --enable-libass --enable-libbluray --enable-libbs2b --enable-libcaca --enable-libcdio --enable-libcodec2 --enable-libflite --enable-libfontconfig --enable-libfreetype --enable-libfribidi --enable-libgme --enable-libgsm --enable-libjack --enable-libmp3lame --enable-libmysofa --enable-libopenjpeg --enable-libopenmpt --enable-libopus --enable-libpulse --enable-librsvg --enable-librubberband --enable-libshine --enable-libsnappy --enable-libsoxr --enable-libspeex --enable-libssh --enable-libtheora --enable-libtwolame --enable-libvidstab --enable-libvorbis --enable-libvpx --enable-libwavpack --enable-libwebp --enable-libx265 --enable-libxml2 --enable-libxvid --enable-libzmq --enable-libzvbi --enable-lv2 --enable-omx --enable-openal --enable-opencl --enable-opengl --enable-sdl2 --enable-libdc1394 --enable-libdrm --enable-libiec61883 --enable-nvenc --enable-chromaprint --enable-frei0r --enable-libx264 --enable-shared
  libavutil      56. 31.100 / 56. 31.100
  libavcodec     58. 54.100 / 58. 54.100
  libavformat    58. 29.100 / 58. 29.100
  libavdevice    58.  8.100 / 58.  8.100
  libavfilter     7. 57.100 /  7. 57.100
  libavresample   4.  0.  0 /  4.  0.  0
  libswscale      5.  5.100 /  5.  5.100
  libswresample   3.  5.100 /  3.  5.100
  libpostproc    55.  5.100 / 55.  5.100
Input #0, mov,mp4,m4a,3gp,3g2,mj2, from './tmp_video/ai_stream.mp4':
  Metadata:
    major_brand     : isom
    minor_version   : 512
    compatible_brands: isomiso2avc1mp41
    encoder         : Lavf58.76.100
  Duration: 00:00:30.38, start: 0.000000, bitrate: 921 kb/s
    Stream #0:0(und): Video: h264 (High) (avc1 / 0x31637661), yuv420p, 576x768, 873 kb/s, 18 fps, 18 tbr, 18432 tbn, 36 tbc (default)
    Metadata:
      handler_name    : VideoHandler
    Stream #0:1(und): Audio: aac (LC) (mp4a / 0x6134706D), 44100 Hz, mono, fltp, 53 kb/s (default)
    Metadata:
      handler_name    : SoundHandler
Output #0, flv, to 'rtmp://localhost/live/stream':
  Metadata:
    major_brand     : isom
    minor_version   : 512
    compatible_brands: isomiso2avc1mp41
    encoder         : Lavf58.29.100
    Stream #0:0(und): Video: h264 (High) ([7][0][0][0] / 0x0007), yuv420p, 576x768, q=2-31, 873 kb/s, 18 fps, 18 tbr, 1k tbn, 18432 tbc (default)
    Metadata:
      handler_name    : VideoHandler
    Stream #0:1(und): Audio: aac (LC) ([10][0][0][0] / 0x000A), 44100 Hz, mono, fltp, 53 kb/s (default)
    Metadata:
      handler_name    : SoundHandler
Stream mapping:
  Stream #0:0 -> #0:0 (copy)
  Stream #0:1 -> #0:1 (copy)
Press [q] to stop, [?] for help
frame=   12 fps=0.0 q=-1.0 size=     141kB time=00:00:00.51 bitrate=2262.5kbits/s speed=1.01x    frame=   21 fps= 21 q=-1.0 size=     213kB time=00:00:01.02 bitrate=1705.9kbits/s speed=1.01x    frame=   30 fps= 20 q=-1.0 size=     258kB time=00:00:01.53 bitrate=1380.0kbits/s speed=1.01x    frame=   39 fps= 19 q=-1.0 size=     297kB time=00:00:02.04 bitrate=1192.4kbits/s speed=1.01x    frame=   48 fps= 19 q=-1.0 size=     335kB time=00:00:02.53 bitrate=1083.9kbits/s speed=   1x    frame=   57 fps= 19 q=-1.0 size=     388kB time=00:00:03.04 bitrate=1044.2kbits/s speed=   1x    frame=   66 fps= 19 q=-1.0 size=     440kB time=00:00:03.55 bitrate=1013.7kbits/s speed=   1x    frame=   76 fps= 19 q=-1.0 size=     535kB time=00:00:04.05 bitrate=1080.2kbits/s speed=   1x    frame=   85 fps= 19 q=-1.0 size=     595kB time=00:00:04.55 bitrate=1069.4kbits/s speed=   1x    frame=   94 fps= 19 q=-1.0 size=     663kB time=00:00:05.06 bitrate=1072.6kbits/s speed=   1x    frame=  103 fps= 19 q=-1.0 size=     727kB time=00:00:05.57 bitrate=1068.8kbits/s speed=   1x    frame=  112 fps= 18 q=-1.0 size=     762kB time=00:00:06.08 bitrate=1026.5kbits/s speed=   1x    frame=  121 fps= 18 q=-1.0 size=     820kB time=00:00:06.59 bitrate=1018.7kbits/s speed=   1x    frame=  130 fps= 18 q=-1.0 size=     871kB time=00:00:07.10 bitrate=1004.6kbits/s speed=   1x    frame=  139 fps= 18 q=-1.0 size=     945kB time=00:00:07.59 bitrate=1019.5kbits/s speed=   1x    frame=  148 fps= 18 q=-1.0 size=    1028kB time=00:00:08.10 bitrate=1039.4kbits/s speed=   1x    frame=  158 fps= 18 q=-1.0 size=    1092kB time=00:00:08.61 bitrate=1038.9kbits/s speed=   1x    frame=  167 fps= 18 q=-1.0 size=    1133kB time=00:00:09.11 bitrate=1018.7kbits/s speed=   1x    frame=  176 fps= 18 q=-1.0 size=    1180kB time=00:00:09.61 bitrate=1005.2kbits/s speed=   1x    frame=  185 fps= 18 q=-1.0 size=    1218kB time=00:00:10.12 bitrate= 986.0kbits/s speed=   1x    frame=  194 fps= 18 q=-1.0 size=    1257kB time=00:00:10.63 bitrate= 968.2kbits/s speed=   1x    frame=  203 fps= 18 q=-1.0 size=    1303kB time=00:00:11.14 bitrate= 957.5kbits/s speed=   1x    frame=  212 fps= 18 q=-1.0 size=    1362kB time=00:00:11.65 bitrate= 957.4kbits/s speed=   1x    frame=  221 fps= 18 q=-1.0 size=    1443kB time=00:00:12.14 bitrate= 973.7kbits/s speed=   1x    frame=  230 fps= 18 q=-1.0 size=    1504kB time=00:00:12.65 bitrate= 973.9kbits/s speed=   1x    frame=  239 fps= 18 q=-1.0 size=    1569kB time=00:00:13.16 bitrate= 976.5kbits/s speed=   1x    frame=  249 fps= 18 q=-1.0 size=    1611kB time=00:00:13.66 bitrate= 965.5kbits/s speed=   1x    frame=  257 fps= 18 q=-1.0 size=    1729kB time=00:00:14.16 bitrate= 999.8kbits/s speed=   1x    frame=  267 fps= 18 q=-1.0 size=    1784kB time=00:00:14.66 bitrate= 996.6kbits/s speed=   1x    frame=  276 fps= 18 q=-1.0 size=    1853kB time=00:00:15.16 bitrate=1001.0kbits/s speed=   1x    frame=  285 fps= 18 q=-1.0 size=    1942kB time=00:00:15.67 bitrate=1014.9kbits/s speed=   1x    frame=  294 fps= 18 q=-1.0 size=    2004kB time=00:00:16.18 bitrate=1014.4kbits/s speed=   1x    frame=  303 fps= 18 q=-1.0 size=    2060kB time=00:00:16.69 bitrate=1010.8kbits/s speed=   1x    frame=  312 fps= 18 q=-1.0 size=    2103kB time=00:00:17.20 bitrate=1001.2kbits/s speed=   1x    frame=  321 fps= 18 q=-1.0 size=    2143kB time=00:00:17.71 bitrate= 991.0kbits/s speed=   1x    frame=  331 fps= 18 q=-1.0 size=    2180kB time=00:00:18.22 bitrate= 980.2kbits/s speed=   1x    frame=  339 fps= 18 q=-1.0 size=    2224kB time=00:00:18.71 bitrate= 973.4kbits/s speed=   1x    frame=  349 fps= 18 q=-1.0 size=    2269kB time=00:00:19.22 bitrate= 966.9kbits/s speed=   1x    frame=  358 fps= 18 q=-1.0 size=    2346kB time=00:00:19.72 bitrate= 974.5kbits/s speed=   1x    frame=  367 fps= 18 q=-1.0 size=    2420kB time=00:00:20.24 bitrate= 978.9kbits/s speed=   1x    frame=  376 fps= 18 q=-1.0 size=    2477kB time=00:00:20.75 bitrate= 977.4kbits/s speed=   1x    frame=  385 fps= 18 q=-1.0 size=    2521kB time=00:00:21.24 bitrate= 972.0kbits/s speed=   1x    frame=  394 fps= 18 q=-1.0 size=    2550kB time=00:00:21.75 bitrate= 960.2kbits/s speed=   1x    frame=  403 fps= 18 q=-1.0 size=    2610kB time=00:00:22.26 bitrate= 960.0kbits/s speed=   1x    frame=  413 fps= 18 q=-1.0 size=    2670kB time=00:00:22.77 bitrate= 960.3kbits/s speed=   1x    frame=  421 fps= 18 q=-1.0 size=    2723kB time=00:00:23.26 bitrate= 958.7kbits/s speed=   1x    frame=  430 fps= 18 q=-1.0 size=    2778kB time=00:00:23.77 bitrate= 957.3kbits/s speed=   1x    frame=  440 fps= 18 q=-1.0 size=    2842kB time=00:00:24.27 bitrate= 958.9kbits/s speed=   1x    frame=  449 fps= 18 q=-1.0 size=    2903kB time=00:00:24.77 bitrate= 959.7kbits/s speed=   1x    frame=  458 fps= 18 q=-1.0 size=    2938kB time=00:00:25.28 bitrate= 951.7kbits/s speed=   1x    frame=  467 fps= 18 q=-1.0 size=    2973kB time=00:00:25.79 bitrate= 944.1kbits/s speed=   1x    frame=  476 fps= 18 q=-1.0 size=    3033kB time=00:00:26.30 bitrate= 944.5kbits/s speed=   1x    frame=  485 fps= 18 q=-1.0 size=    3090kB time=00:00:26.81 bitrate= 943.7kbits/s speed=   1x    frame=  494 fps= 18 q=-1.0 size=    3175kB time=00:00:27.33 bitrate= 951.7kbits/s speed=   1x    frame=  504 fps= 18 q=-1.0 size=    3277kB time=00:00:27.83 bitrate= 964.5kbits/s speed=   1x    frame=  512 fps= 18 q=-1.0 size=    3334kB time=00:00:28.32 bitrate= 964.1kbits/s speed=   1x    frame=  522 fps= 18 q=-1.0 size=    3377kB time=00:00:28.83 bitrate= 959.4kbits/s speed=   1x    frame=  531 fps= 18 q=-1.0 size=    3410kB time=00:00:29.35 bitrate= 951.7kbits/s speed=   1x    frame=  540 fps= 18 q=-1.0 size=    3429kB time=00:00:29.86 bitrate= 940.7kbits/s speed=   1x    frame=  540 fps= 18 q=-1.0 size=    3429kB time=00:00:30.37 bitrate= 924.9kbits/s speed=   1x    [flv @ 0x597a901c4d80] Failed to update header with correct duration.
[flv @ 0x597a901c4d80] Failed to update header with correct filesize.
frame=  540 fps= 18 q=-1.0 Lsize=    3430kB time=00:00:30.37 bitrate= 925.0kbits/s speed=   1x    
video:3199kB audio:198kB subtitle:0kB other streams:0kB global headers:0kB muxing overhead: 0.965313%
ffmpeg version 4.2.7-0ubuntu0.1 Copyright (c) 2000-2022 the FFmpeg developers
  built with gcc 9 (Ubuntu 9.4.0-1ubuntu1~20.04.1)
  configuration: --prefix=/usr --extra-version=0ubuntu0.1 --toolchain=hardened --libdir=/usr/lib/x86_64-linux-gnu --incdir=/usr/include/x86_64-linux-gnu --arch=amd64 --enable-gpl --disable-stripping --enable-avresample --disable-filter=resample --enable-avisynth --enable-gnutls --enable-ladspa --enable-libaom --enable-libass --enable-libbluray --enable-libbs2b --enable-libcaca --enable-libcdio --enable-libcodec2 --enable-libflite --enable-libfontconfig --enable-libfreetype --enable-libfribidi --enable-libgme --enable-libgsm --enable-libjack --enable-libmp3lame --enable-libmysofa --enable-libopenjpeg --enable-libopenmpt --enable-libopus --enable-libpulse --enable-librsvg --enable-librubberband --enable-libshine --enable-libsnappy --enable-libsoxr --enable-libspeex --enable-libssh --enable-libtheora --enable-libtwolame --enable-libvidstab --enable-libvorbis --enable-libvpx --enable-libwavpack --enable-libwebp --enable-libx265 --enable-libxml2 --enable-libxvid --enable-libzmq --enable-libzvbi --enable-lv2 --enable-omx --enable-openal --enable-opencl --enable-opengl --enable-sdl2 --enable-libdc1394 --enable-libdrm --enable-libiec61883 --enable-nvenc --enable-chromaprint --enable-frei0r --enable-libx264 --enable-shared
  libavutil      56. 31.100 / 56. 31.100
  libavcodec     58. 54.100 / 58. 54.100
  libavformat    58. 29.100 / 58. 29.100
  libavdevice    58.  8.100 / 58.  8.100
  libavfilter     7. 57.100 /  7. 57.100
  libavresample   4.  0.  0 /  4.  0.  0
  libswscale      5.  5.100 /  5.  5.100
  libswresample   3.  5.100 /  3.  5.100
  libpostproc    55.  5.100 / 55.  5.100
Input #0, mov,mp4,m4a,3gp,3g2,mj2, from './tmp_video/ai_stream.mp4':
  Metadata:
    major_brand     : isom
    minor_version   : 512
    compatible_brands: isomiso2avc1mp41
    encoder         : Lavf58.76.100
  Duration: 00:00:30.38, start: 0.000000, bitrate: 921 kb/s
    Stream #0:0(und): Video: h264 (High) (avc1 / 0x31637661), yuv420p, 576x768, 873 kb/s, 18 fps, 18 tbr, 18432 tbn, 36 tbc (default)
    Metadata:
      handler_name    : VideoHandler
    Stream #0:1(und): Audio: aac (LC) (mp4a / 0x6134706D), 44100 Hz, mono, fltp, 53 kb/s (default)
    Metadata:
      handler_name    : SoundHandler
Output #0, flv, to 'rtmp://localhost/live/stream':
  Metadata:
    major_brand     : isom
    minor_version   : 512
    compatible_brands: isomiso2avc1mp41
    encoder         : Lavf58.29.100
    Stream #0:0(und): Video: h264 (High) ([7][0][0][0] / 0x0007), yuv420p, 576x768, q=2-31, 873 kb/s, 18 fps, 18 tbr, 1k tbn, 18432 tbc (default)
    Metadata:
      handler_name    : VideoHandler
    Stream #0:1(und): Audio: aac (LC) ([10][0][0][0] / 0x000A), 44100 Hz, mono, fltp, 53 kb/s (default)
    Metadata:
      handler_name    : SoundHandler
Stream mapping:
  Stream #0:0 -> #0:0 (copy)
  Stream #0:1 -> #0:1 (copy)
Press [q] to stop, [?] for help
frame=   12 fps=0.0 q=-1.0 size=     141kB time=00:00:00.51 bitrate=2262.5kbits/s speed=1.01x    frame=   21 fps= 21 q=-1.0 size=     213kB time=00:00:01.02 bitrate=1705.9kbits/s speed=1.01x    frame=   30 fps= 20 q=-1.0 size=     258kB time=00:00:01.53 bitrate=1380.0kbits/s speed=1.01x    frame=   39 fps= 19 q=-1.0 size=     297kB time=00:00:02.04 bitrate=1192.4kbits/s speed=1.01x    frame=   48 fps= 19 q=-1.0 size=     335kB time=00:00:02.55 bitrate=1074.2kbits/s speed=1.01x    frame=   57 fps= 19 q=-1.0 size=     388kB time=00:00:03.04 bitrate=1044.2kbits/s speed=   1x    frame=   66 fps= 19 q=-1.0 size=     440kB time=00:00:03.55 bitrate=1013.7kbits/s speed=   1x    frame=   76 fps= 19 q=-1.0 size=     535kB time=00:00:04.05 bitrate=1080.2kbits/s speed=   1x    frame=   85 fps= 19 q=-1.0 size=     595kB time=00:00:04.55 bitrate=1069.4kbits/s speed=   1x    frame=   94 fps= 19 q=-1.0 size=     663kB time=00:00:05.06 bitrate=1072.6kbits/s speed=   1x    frame=  103 fps= 18 q=-1.0 size=     727kB time=00:00:05.57 bitrate=1068.8kbits/s speed=   1x    frame=  112 fps= 18 q=-1.0 size=     762kB time=00:00:06.08 bitrate=1026.5kbits/s speed=   1x    frame=  121 fps= 18 q=-1.0 size=     820kB time=00:00:06.59 bitrate=1018.7kbits/s speed=   1x    frame=  130 fps= 18 q=-1.0 size=     871kB time=00:00:07.10 bitrate=1004.6kbits/s speed=   1x    frame=  140 fps= 18 q=-1.0 size=     945kB time=00:00:07.61 bitrate=1017.4kbits/s speed=   1x    frame=  148 fps= 18 q=-1.0 size=    1028kB time=00:00:08.10 bitrate=1039.4kbits/s speed=   1x    frame=  158 fps= 18 q=-1.0 size=    1092kB time=00:00:08.61 bitrate=1038.9kbits/s speed=   1x    frame=  167 fps= 18 q=-1.0 size=    1141kB time=00:00:09.12 bitrate=1024.8kbits/s speed=   1x    frame=  176 fps= 18 q=-1.0 size=    1180kB time=00:00:09.61 bitrate=1005.2kbits/s speed=0.999x    frame=  185 fps= 18 q=-1.0 size=    1218kB time=00:00:10.14 bitrate= 983.7kbits/s speed=   1x    frame=  194 fps= 18 q=-1.0 size=    1257kB time=00:00:10.63 bitrate= 968.2kbits/s speed=   1x    frame=  203 fps= 18 q=-1.0 size=    1303kB time=00:00:11.14 bitrate= 957.5kbits/s speed=   1x    frame=  212 fps= 18 q=-1.0 size=    1362kB time=00:00:11.65 bitrate= 957.4kbits/s speed=   1x    frame=  221 fps= 18 q=-1.0 size=    1443kB time=00:00:12.14 bitrate= 973.7kbits/s speed=   1x    frame=  230 fps= 18 q=-1.0 size=    1504kB time=00:00:12.65 bitrate= 973.9kbits/s speed=   1x    frame=  239 fps= 18 q=-1.0 size=    1569kB time=00:00:13.16 bitrate= 976.5kbits/s speed=   1x    frame=  249 fps= 18 q=-1.0 size=    1611kB time=00:00:13.66 bitrate= 965.5kbits/s speed=   1x    frame=  258 fps= 18 q=-1.0 size=    1729kB time=00:00:14.16 bitrate= 999.9kbits/s speed=   1x    frame=  267 fps= 18 q=-1.0 size=    1795kB time=00:00:14.67 bitrate=1002.2kbits/s speed=   1x    frame=  276 fps= 18 q=-1.0 size=    1855kB time=00:00:15.18 bitrate=1000.5kbits/s speed=   1x    frame=  285 fps= 18 q=-1.0 size=    1942kB time=00:00:15.69 bitrate=1013.4kbits/s speed=   1x    frame=  294 fps= 18 q=-1.0 size=    2004kB time=00:00:16.20 bitrate=1012.9kbits/s speed=   1x    frame=  303 fps= 18 q=-1.0 size=    2060kB time=00:00:16.71 bitrate=1009.4kbits/s speed=   1x    frame=  313 fps= 18 q=-1.0 size=    2103kB time=00:00:17.22 bitrate=1000.2kbits/s speed=   1x    frame=  321 fps= 18 q=-1.0 size=    2143kB time=00:00:17.71 bitrate= 991.0kbits/s speed=   1x    frame=  331 fps= 18 q=-1.0 size=    2180kB time=00:00:18.22 bitrate= 980.2kbits/s speed=   1x    frame=  340 fps= 18 q=-1.0 size=    2224kB time=00:00:18.72 bitrate= 973.0kbits/s speed=   1x    frame=  349 fps= 18 q=-1.0 size=    2284kB time=00:00:19.22 bitrate= 973.0kbits/s speed=   1x    frame=  358 fps= 18 q=-1.0 size=    2347kB time=00:00:19.73 bitrate= 974.3kbits/s speed=   1x    frame=  367 fps= 18 q=-1.0 size=    2420kB time=00:00:20.24 bitrate= 978.9kbits/s speed=   1x    frame=  376 fps= 18 q=-1.0 size=    2477kB time=00:00:20.75 bitrate= 977.4kbits/s speed=   1x    frame=  385 fps= 18 q=-1.0 size=    2521kB time=00:00:21.26 bitrate= 971.0kbits/s speed=   1x    frame=  394 fps= 18 q=-1.0 size=    2550kB time=00:00:21.75 bitrate= 960.2kbits/s speed=   1x    frame=  403 fps= 18 q=-1.0 size=    2610kB time=00:00:22.26 bitrate= 960.0kbits/s speed=   1x    frame=  413 fps= 18 q=-1.0 size=    2670kB time=00:00:22.77 bitrate= 960.3kbits/s speed=   1x    frame=  422 fps= 18 q=-1.0 size=    2723kB time=00:00:23.27 bitrate= 958.4kbits/s speed=   1x    frame=  431 fps= 18 q=-1.0 size=    2779kB time=00:00:23.77 bitrate= 957.2kbits/s speed=   1x    frame=  440 fps= 18 q=-1.0 size=    2857kB time=00:00:24.28 bitrate= 963.7kbits/s speed=   1x    frame=  449 fps= 18 q=-1.0 size=    2904kB time=00:00:24.79 bitrate= 959.2kbits/s speed=   1x    frame=  458 fps= 18 q=-1.0 size=    2938kB time=00:00:25.31 bitrate= 950.8kbits/s speed=   1x    frame=  467 fps= 18 q=-1.0 size=    2973kB time=00:00:25.79 bitrate= 944.1kbits/s speed=   1x    frame=  476 fps= 18 q=-1.0 size=    3033kB time=00:00:26.30 bitrate= 944.5kbits/s speed=   1x    frame=  485 fps= 18 q=-1.0 size=    3090kB time=00:00:26.81 bitrate= 943.7kbits/s speed=   1x    frame=  494 fps= 18 q=-1.0 size=    3175kB time=00:00:27.33 bitrate= 951.7kbits/s speed=   1x    frame=  504 fps= 18 q=-1.0 size=    3277kB time=00:00:27.83 bitrate= 964.5kbits/s speed=   1x    frame=  513 fps= 18 q=-1.0 size=    3334kB time=00:00:28.33 bitrate= 964.1kbits/s speed=   1x    frame=  522 fps= 18 q=-1.0 size=    3387kB time=00:00:28.83 bitrate= 962.3kbits/s speed=   1x    frame=  531 fps= 18 q=-1.0 size=    3410kB time=00:00:29.35 bitrate= 951.7kbits/s speed=   1x    frame=  540 fps= 18 q=-1.0 size=    3429kB time=00:00:29.86 bitrate= 940.7kbits/s speed=   1x    frame=  540 fps= 18 q=-1.0 size=    3429kB time=00:00:30.37 bitrate= 924.9kbits/s speed=   1x    [flv @ 0x62c0c1875d80] Failed to update header with correct duration.
[flv @ 0x62c0c1875d80] Failed to update header with correct filesize.
frame=  540 fps= 18 q=-1.0 Lsize=    3430kB time=00:00:30.37 bitrate= 925.0kbits/s speed=   1x    
video:3199kB audio:198kB subtitle:0kB other streams:0kB global headers:0kB muxing overhead: 0.965313%
ffmpeg version 4.2.7-0ubuntu0.1 Copyright (c) 2000-2022 the FFmpeg developers
  built with gcc 9 (Ubuntu 9.4.0-1ubuntu1~20.04.1)
  configuration: --prefix=/usr --extra-version=0ubuntu0.1 --toolchain=hardened --libdir=/usr/lib/x86_64-linux-gnu --incdir=/usr/include/x86_64-linux-gnu --arch=amd64 --enable-gpl --disable-stripping --enable-avresample --disable-filter=resample --enable-avisynth --enable-gnutls --enable-ladspa --enable-libaom --enable-libass --enable-libbluray --enable-libbs2b --enable-libcaca --enable-libcdio --enable-libcodec2 --enable-libflite --enable-libfontconfig --enable-libfreetype --enable-libfribidi --enable-libgme --enable-libgsm --enable-libjack --enable-libmp3lame --enable-libmysofa --enable-libopenjpeg --enable-libopenmpt --enable-libopus --enable-libpulse --enable-librsvg --enable-librubberband --enable-libshine --enable-libsnappy --enable-libsoxr --enable-libspeex --enable-libssh --enable-libtheora --enable-libtwolame --enable-libvidstab --enable-libvorbis --enable-libvpx --enable-libwavpack --enable-libwebp --enable-libx265 --enable-libxml2 --enable-libxvid --enable-libzmq --enable-libzvbi --enable-lv2 --enable-omx --enable-openal --enable-opencl --enable-opengl --enable-sdl2 --enable-libdc1394 --enable-libdrm --enable-libiec61883 --enable-nvenc --enable-chromaprint --enable-frei0r --enable-libx264 --enable-shared
  libavutil      56. 31.100 / 56. 31.100
  libavcodec     58. 54.100 / 58. 54.100
  libavformat    58. 29.100 / 58. 29.100
  libavdevice    58.  8.100 / 58.  8.100
  libavfilter     7. 57.100 /  7. 57.100
  libavresample   4.  0.  0 /  4.  0.  0
  libswscale      5.  5.100 /  5.  5.100
  libswresample   3.  5.100 /  3.  5.100
  libpostproc    55.  5.100 / 55.  5.100
Input #0, mov,mp4,m4a,3gp,3g2,mj2, from './tmp_video/ai_stream.mp4':
  Metadata:
    major_brand     : isom
    minor_version   : 512
    compatible_brands: isomiso2avc1mp41
    encoder         : Lavf58.76.100
  Duration: 00:00:30.38, start: 0.000000, bitrate: 921 kb/s
    Stream #0:0(und): Video: h264 (High) (avc1 / 0x31637661), yuv420p, 576x768, 873 kb/s, 18 fps, 18 tbr, 18432 tbn, 36 tbc (default)
    Metadata:
      handler_name    : VideoHandler
    Stream #0:1(und): Audio: aac (LC) (mp4a / 0x6134706D), 44100 Hz, mono, fltp, 53 kb/s (default)
    Metadata:
      handler_name    : SoundHandler
Output #0, flv, to 'rtmp://localhost/live/stream':
  Metadata:
    major_brand     : isom
    minor_version   : 512
    compatible_brands: isomiso2avc1mp41
    encoder         : Lavf58.29.100
    Stream #0:0(und): Video: h264 (High) ([7][0][0][0] / 0x0007), yuv420p, 576x768, q=2-31, 873 kb/s, 18 fps, 18 tbr, 1k tbn, 18432 tbc (default)
    Metadata:
      handler_name    : VideoHandler
    Stream #0:1(und): Audio: aac (LC) ([10][0][0][0] / 0x000A), 44100 Hz, mono, fltp, 53 kb/s (default)
    Metadata:
      handler_name    : SoundHandler
Stream mapping:
  Stream #0:0 -> #0:0 (copy)
  Stream #0:1 -> #0:1 (copy)
Press [q] to stop, [?] for help
frame=   12 fps=0.0 q=-1.0 size=     141kB time=00:00:00.51 bitrate=2262.5kbits/s speed=1.01x    frame=   21 fps= 21 q=-1.0 size=     213kB time=00:00:01.02 bitrate=1705.9kbits/s speed=1.01x    frame=   30 fps= 20 q=-1.0 size=     258kB time=00:00:01.53 bitrate=1380.0kbits/s speed=1.01x    frame=   39 fps= 19 q=-1.0 size=     297kB time=00:00:02.04 bitrate=1192.4kbits/s speed=1.01x    frame=   48 fps= 19 q=-1.0 size=     335kB time=00:00:02.53 bitrate=1083.9kbits/s speed=   1x    frame=   57 fps= 19 q=-1.0 size=     388kB time=00:00:03.04 bitrate=1044.2kbits/s speed=   1x    frame=   66 fps= 19 q=-1.0 size=     440kB time=00:00:03.55 bitrate=1013.7kbits/s speed=   1x    frame=   76 fps= 19 q=-1.0 size=     535kB time=00:00:04.05 bitrate=1080.2kbits/s speed=   1x    frame=   85 fps= 19 q=-1.0 size=     595kB time=00:00:04.55 bitrate=1069.4kbits/s speed=   1x    frame=   94 fps= 19 q=-1.0 size=     663kB time=00:00:05.06 bitrate=1072.6kbits/s speed=   1x    frame=  103 fps= 19 q=-1.0 size=     727kB time=00:00:05.57 bitrate=1068.8kbits/s speed=   1x    frame=  112 fps= 18 q=-1.0 size=     762kB time=00:00:06.08 bitrate=1026.5kbits/s speed=   1x    frame=  121 fps= 18 q=-1.0 size=     820kB time=00:00:06.59 bitrate=1018.7kbits/s speed=   1x    frame=  130 fps= 18 q=-1.0 size=     871kB time=00:00:07.08 bitrate=1007.9kbits/s speed=   1x    frame=  139 fps= 18 q=-1.0 size=     945kB time=00:00:07.59 bitrate=1019.5kbits/s speed=   1x    frame=  148 fps= 18 q=-1.0 size=    1028kB time=00:00:08.10 bitrate=1039.4kbits/s speed=   1x    frame=  158 fps= 18 q=-1.0 size=    1092kB time=00:00:08.61 bitrate=1038.9kbits/s speed=   1x    frame=  167 fps= 18 q=-1.0 size=    1133kB time=00:00:09.11 bitrate=1018.7kbits/s speed=   1x    frame=  176 fps= 18 q=-1.0 size=    1180kB time=00:00:09.61 bitrate=1005.2kbits/s speed=   1x    frame=  185 fps= 18 q=-1.0 size=    1218kB time=00:00:10.12 bitrate= 986.0kbits/s speed=   1x    frame=  194 fps= 18 q=-1.0 size=    1257kB time=00:00:10.63 bitrate= 968.2kbits/s speed=   1x    frame=  203 fps= 18 q=-1.0 size=    1303kB time=00:00:11.14 bitrate= 957.5kbits/s speed=   1x    frame=  212 fps= 18 q=-1.0 size=    1362kB time=00:00:11.65 bitrate= 957.4kbits/s speed=   1x    frame=  222 fps= 18 q=-1.0 size=    1444kB time=00:00:12.16 bitrate= 972.0kbits/s speed=   1x    frame=  231 fps= 18 q=-1.0 size=    1505kB time=00:00:12.66 bitrate= 973.1kbits/s speed=   1x    frame=  239 fps= 18 q=-1.0 size=    1569kB time=00:00:13.16 bitrate= 976.5kbits/s speed=   1x    frame=  249 fps= 18 q=-1.0 size=    1620kB time=00:00:13.67 bitrate= 970.4kbits/s speed=   1x    frame=  258 fps= 18 q=-1.0 size=    1730kB time=00:00:14.18 bitrate= 999.2kbits/s speed=   1x    frame=  267 fps= 18 q=-1.0 size=    1795kB time=00:00:14.69 bitrate=1000.6kbits/s speed=   1x    frame=  276 fps= 18 q=-1.0 size=    1855kB time=00:00:15.20 bitrate= 999.0kbits/s speed=   1x    frame=  285 fps= 18 q=-1.0 size=    1942kB time=00:00:15.72 bitrate=1011.9kbits/s speed=   1x    frame=  294 fps= 18 q=-1.0 size=    2004kB time=00:00:16.20 bitrate=1012.9kbits/s speed=   1x    frame=  303 fps= 18 q=-1.0 size=    2060kB time=00:00:16.71 bitrate=1009.4kbits/s speed=   1x    frame=  313 fps= 18 q=-1.0 size=    2103kB time=00:00:17.22 bitrate=1000.2kbits/s speed=   1x    frame=  322 fps= 18 q=-1.0 size=    2144kB time=00:00:17.72 bitrate= 991.0kbits/s speed=   1x    frame=  331 fps= 18 q=-1.0 size=    2187kB time=00:00:18.22 bitrate= 982.8kbits/s speed=   1x    frame=  340 fps= 18 q=-1.0 size=    2225kB time=00:00:18.76 bitrate= 971.4kbits/s speed=   1x    frame=  349 fps= 18 q=-1.0 size=    2284kB time=00:00:19.24 bitrate= 971.8kbits/s speed=   1x    frame=  358 fps= 18 q=-1.0 size=    2347kB time=00:00:19.76 bitrate= 973.2kbits/s speed=   1x    frame=  367 fps= 18 q=-1.0 size=    2420kB time=00:00:20.27 bitrate= 977.8kbits/s speed=   1x    frame=  377 fps= 18 q=-1.0 size=    2477kB time=00:00:20.77 bitrate= 976.5kbits/s speed=   1x    frame=  385 fps= 18 q=-1.0 size=    2521kB time=00:00:21.26 bitrate= 971.0kbits/s speed=   1x    frame=  395 fps= 18 q=-1.0 size=    2551kB time=00:00:21.77 bitrate= 959.4kbits/s speed=   1x    frame=  404 fps= 18 q=-1.0 size=    2611kB time=00:00:22.29 bitrate= 959.6kbits/s speed=   1x    frame=  413 fps= 18 q=-1.0 size=    2683kB time=00:00:22.77 bitrate= 964.9kbits/s speed=   1x    